<svg width="256" height="256" viewBox="0 0 256 256" fill="none" xmlns="http://www.w3.org/2000/svg">
  <rect width="256" height="256" rx="64" fill="#F8F4EF"/>
  <path d="M70 84C70 72.9543 78.9543 64 90 64H166C177.046 64 186 72.9543 186 84V170C186 183.255 175.255 194 162 194H94C80.7452 194 70 183.255 70 170V84Z" fill="#0F172A"/>
  <path d="M86 92C86 87.5817 89.5817 84 94 84H156C160.418 84 164 87.5817 164 92V162C164 166.418 160.418 170 156 170H94C89.5817 170 86 166.418 86 162V92Z" fill="#F8FAFC"/>
  <path d="M101 112C101 109.791 102.791 108 105 108H145C147.209 108 149 109.791 149 112C149 114.209 147.209 116 145 116H105C102.791 116 101 114.209 101 112Z" fill="#0F172A"/>
  <path d="M101 132C101 129.791 102.791 128 105 128H135C137.209 128 139 129.791 139 132C139 134.209 137.209 136 135 136H105C102.791 136 101 134.209 101 132Z" fill="#F97316"/>
  <path d="M170 82L176 97L191 103L176 109L170 124L164 109L149 103L164 97L170 82Z" fill="#60A5FA"/>
</svg>
