<svg width="256" height="256" viewBox="0 0 256 256" fill="none" xmlns="http://www.w3.org/2000/svg">
  <defs>
    <linearGradient id="bg" x1="32" y1="24" x2="224" y2="232" gradientUnits="userSpaceOnUse">
      <stop stop-color="#0F172A" />
      <stop offset="1" stop-color="#1E293B" />
    </linearGradient>
    <linearGradient id="accent" x1="82" y1="78" x2="178" y2="178" gradientUnits="userSpaceOnUse">
      <stop stop-color="#FB923C" />
      <stop offset="1" stop-color="#60A5FA" />
    </linearGradient>
  </defs>
  <rect width="256" height="256" rx="64" fill="#F8F4EF"/>
  <path d="M56 84C56 67.4315 69.4315 54 86 54H170C186.569 54 200 67.4315 200 84V172C200 188.569 186.569 202 170 202H86C69.4315 202 56 188.569 56 172V84Z" fill="url(#bg)"/>
  <path d="M84 96C84 90.4772 88.4772 86 94 86H162C167.523 86 172 90.4772 172 96V160C172 165.523 167.523 170 162 170H94C88.4772 170 84 165.523 84 160V96Z" fill="#F8FAFC"/>
  <path d="M100 116C100 113.791 101.791 112 104 112H144C146.209 112 148 113.791 148 116C148 118.209 146.209 120 144 120H104C101.791 120 100 118.209 100 116Z" fill="#0F172A"/>
  <path d="M100 136C100 133.791 101.791 132 104 132H132C134.209 132 136 133.791 136 136C136 138.209 134.209 140 132 140H104C101.791 140 100 138.209 100 136Z" fill="#FB923C"/>
  <path d="M166 82L173 99L190 106L173 113L166 130L159 113L142 106L159 99L166 82Z" fill="url(#accent)"/>
  <circle cx="180" cy="168" r="8" fill="#60A5FA"/>
  <circle cx="76" cy="170" r="6" fill="#FB923C"/>
</svg>
